<mxfile host="app.diagrams.net" agent="Mozilla/5.0 (Windows NT 10.0; Win64; x64) AppleWebKit/537.36 (KHTML, like Gecko) Chrome/134.0.0.0 YaBrowser/25.4.0.0 Safari/537.36" version="27.0.2">
  <diagram name="Страница — 1" id="dukQuIdmuU8968urmikL">
    <mxGraphModel dx="994" dy="580" grid="1" gridSize="10" guides="1" tooltips="1" connect="1" arrows="1" fold="1" page="1" pageScale="1" pageWidth="827" pageHeight="1169" math="0" shadow="0">
      <root>
        <mxCell id="0" />
        <mxCell id="1" parent="0" />
        <mxCell id="HO00yqZqPqAkJ7BmOjI5-2" value="Рейс" style="swimlane;whiteSpace=wrap;html=1;startSize=23;" vertex="1" parent="1">
          <mxGeometry x="30" y="40" width="200" height="240" as="geometry" />
        </mxCell>
        <mxCell id="HO00yqZqPqAkJ7BmOjI5-3" value="Id&lt;br&gt;Дата и время начала рейса&lt;div&gt;Номер вагона&lt;/div&gt;&lt;div&gt;Дорога отправления&lt;/div&gt;&lt;div&gt;Дорога назначения&lt;/div&gt;&lt;div&gt;Номер накладной&lt;/div&gt;&lt;div&gt;Станция отправления&lt;/div&gt;&lt;div&gt;Станция назначения&lt;/div&gt;&lt;div&gt;Наименование груза&lt;/div&gt;&lt;div&gt;Грузоотправитель&lt;/div&gt;&lt;div&gt;Грузополучатель&lt;br&gt;Тип парка (М/Т)&lt;br&gt;Тип парка (П/Г)&lt;br&gt;Время загрузки данных&lt;/div&gt;" style="text;html=1;align=center;verticalAlign=middle;resizable=0;points=[];autosize=1;strokeColor=none;fillColor=none;" vertex="1" parent="HO00yqZqPqAkJ7BmOjI5-2">
          <mxGeometry x="10" y="20" width="180" height="220" as="geometry" />
        </mxCell>
        <mxCell id="HO00yqZqPqAkJ7BmOjI5-6" value="Дислокация" style="swimlane;whiteSpace=wrap;html=1;startSize=23;" vertex="1" parent="1">
          <mxGeometry x="270" y="40" width="200" height="290" as="geometry" />
        </mxCell>
        <mxCell id="HO00yqZqPqAkJ7BmOjI5-7" value="Id&lt;div&gt;Группа наименование&lt;/div&gt;&lt;div&gt;Вагон&lt;/div&gt;&lt;div&gt;Дата операции&lt;/div&gt;&lt;div&gt;Операция&lt;/div&gt;&lt;div&gt;Станция операции&lt;/div&gt;&lt;div&gt;Дорога операции&lt;/div&gt;&lt;div&gt;Дата отправления&lt;/div&gt;&lt;div&gt;Станция отправления&lt;/div&gt;&lt;div&gt;Дорога отправления&lt;/div&gt;&lt;div&gt;Станция назначения&lt;/div&gt;&lt;div&gt;Дорога назначения&lt;/div&gt;&lt;div&gt;Код груза&lt;/div&gt;&lt;div&gt;Груз наименование&lt;/div&gt;&lt;div&gt;Дата доставки (расчетная)&lt;br&gt;Расстояние, км&lt;/div&gt;&lt;div&gt;Простой (дни)&lt;/div&gt;&lt;div&gt;Груженность&lt;/div&gt;" style="text;html=1;align=center;verticalAlign=middle;resizable=0;points=[];autosize=1;strokeColor=none;fillColor=none;" vertex="1" parent="HO00yqZqPqAkJ7BmOjI5-6">
          <mxGeometry x="15" y="20" width="170" height="270" as="geometry" />
        </mxCell>
        <mxCell id="HO00yqZqPqAkJ7BmOjI5-8" value="Группа" style="swimlane;whiteSpace=wrap;html=1;" vertex="1" parent="1">
          <mxGeometry x="500" y="40" width="200" height="90" as="geometry" />
        </mxCell>
        <mxCell id="HO00yqZqPqAkJ7BmOjI5-9" value="&lt;div&gt;Id&lt;/div&gt;Наименование&lt;div&gt;Вагоны&lt;/div&gt;&lt;div&gt;Время изменения данных&lt;/div&gt;" style="text;html=1;align=center;verticalAlign=middle;resizable=0;points=[];autosize=1;strokeColor=none;fillColor=none;" vertex="1" parent="HO00yqZqPqAkJ7BmOjI5-8">
          <mxGeometry x="15" y="20" width="170" height="70" as="geometry" />
        </mxCell>
        <mxCell id="HO00yqZqPqAkJ7BmOjI5-10" value="Наименования" style="swimlane;whiteSpace=wrap;html=1;" vertex="1" parent="1">
          <mxGeometry x="500" y="160" width="200" height="90" as="geometry" />
        </mxCell>
        <mxCell id="HO00yqZqPqAkJ7BmOjI5-11" value="Id&lt;div&gt;Оригинальное наименование&lt;/div&gt;&lt;div&gt;Альтернативные имена&lt;/div&gt;&lt;div&gt;Время изменения данных&lt;/div&gt;" style="text;html=1;align=center;verticalAlign=middle;resizable=0;points=[];autosize=1;strokeColor=none;fillColor=none;" vertex="1" parent="HO00yqZqPqAkJ7BmOjI5-10">
          <mxGeometry x="5" y="20" width="190" height="70" as="geometry" />
        </mxCell>
        <mxCell id="HO00yqZqPqAkJ7BmOjI5-12" value="Пользователь" style="swimlane;whiteSpace=wrap;html=1;" vertex="1" parent="1">
          <mxGeometry x="30" y="300" width="200" height="80" as="geometry" />
        </mxCell>
        <mxCell id="HO00yqZqPqAkJ7BmOjI5-13" value="Id&lt;div&gt;Наименование&lt;/div&gt;&lt;div&gt;Роль&lt;/div&gt;" style="text;html=1;align=center;verticalAlign=middle;resizable=0;points=[];autosize=1;strokeColor=none;fillColor=none;" vertex="1" parent="HO00yqZqPqAkJ7BmOjI5-12">
          <mxGeometry x="40" y="20" width="110" height="60" as="geometry" />
        </mxCell>
        <mxCell id="HO00yqZqPqAkJ7BmOjI5-14" value="Роль" style="swimlane;whiteSpace=wrap;html=1;" vertex="1" parent="1">
          <mxGeometry x="290" y="350" width="200" height="80" as="geometry" />
        </mxCell>
        <mxCell id="HO00yqZqPqAkJ7BmOjI5-15" value="Id&lt;div&gt;Наименование&lt;/div&gt;&lt;div&gt;Права&lt;/div&gt;" style="text;html=1;align=center;verticalAlign=middle;resizable=0;points=[];autosize=1;strokeColor=none;fillColor=none;" vertex="1" parent="HO00yqZqPqAkJ7BmOjI5-14">
          <mxGeometry x="45" y="20" width="110" height="60" as="geometry" />
        </mxCell>
        <mxCell id="HO00yqZqPqAkJ7BmOjI5-17" value="" style="edgeStyle=entityRelationEdgeStyle;fontSize=12;html=1;endArrow=none;rounded=0;startArrow=ERmany;startFill=0;endFill=1;" edge="1" parent="1">
          <mxGeometry width="100" height="100" relative="1" as="geometry">
            <mxPoint x="230" y="350" as="sourcePoint" />
            <mxPoint x="290" y="380" as="targetPoint" />
          </mxGeometry>
        </mxCell>
      </root>
    </mxGraphModel>
  </diagram>
</mxfile>
